HIERARCHY
ROOT Hips
{
	OFFSET 0.00000 0.00000 0.00000
	CHANNELS 6 Xposition Yposition Zposition Zrotation Yrotation Xrotation 
	JOINT LHipJoint
	{
		OFFSET 0 0 0
		CHANNELS 3 Zrotation Yrotation Xrotation
		JOINT LeftUpLeg
		{
			OFFSET 1.17584 -1.63585 1.00361
			CHANNELS 3 Zrotation Yrotation Xrotation
			JOINT LeftLeg
			{
				OFFSET 2.23889 -6.15131 0.00000
				CHANNELS 3 Zrotation Yrotation Xrotation
				JOINT LeftFoot
				{
					OFFSET 2.65161 -7.28525 0.00000
					CHANNELS 3 Zrotation Yrotation Xrotation
					JOINT LeftToeBase
					{
						OFFSET 0.24898 -0.68407 1.57235
						CHANNELS 3 Zrotation Yrotation Xrotation
						End Site
						{
							OFFSET 0.00000 -0.00000 0.85838
						}
					}
				}
			}
		}
	}
	JOINT RHipJoint
	{
		OFFSET 0 0 0
		CHANNELS 3 Zrotation Yrotation Xrotation
		JOINT RightUpLeg
		{
			OFFSET -1.15592 -1.63585 1.00361
			CHANNELS 3 Zrotation Yrotation Xrotation
			JOINT RightLeg
			{
				OFFSET -2.34071 -6.43104 0.00000
				CHANNELS 3 Zrotation Yrotation Xrotation
				JOINT RightFoot
				{
					OFFSET -2.59113 -7.11908 0.00000
					CHANNELS 3 Zrotation Yrotation Xrotation
					JOINT RightToeBase
					{
						OFFSET -0.17867 -0.49089 1.70981
						CHANNELS 3 Zrotation Yrotation Xrotation
						End Site
						{
							OFFSET -0.00000 -0.00000 0.89861
						}
					}
				}
			}
		}
	}
	JOINT LowerBack
	{
		OFFSET 0 0 0
		CHANNELS 3 Zrotation Yrotation Xrotation
		JOINT Spine
		{
			OFFSET -0.02255 1.90764 -0.16605
			CHANNELS 3 Zrotation Yrotation Xrotation
			JOINT Spine1
			{
				OFFSET -0.00365 1.92150 -0.04898
				CHANNELS 3 Zrotation Yrotation Xrotation
				JOINT Neck
				{
					OFFSET 0 0 0
					CHANNELS 3 Zrotation Yrotation Xrotation
					JOINT Neck1
					{
						OFFSET 0.00372 1.59170 0.08694
						CHANNELS 3 Zrotation Yrotation Xrotation
						JOINT Head
						{
							OFFSET 0.12558 1.58643 -0.08078
							CHANNELS 3 Zrotation Yrotation Xrotation
							End Site
							{
								OFFSET 0.04211 1.60835 -0.03803
							}
						}
					}
				}
				JOINT LeftShoulder
				{
					OFFSET 0 0 0
					CHANNELS 3 Zrotation Yrotation Xrotation
					JOINT LeftArm
					{
						OFFSET 3.69324 0.96316 0.19077
						CHANNELS 3 Zrotation Yrotation Xrotation
						JOINT LeftForeArm
						{
							OFFSET 4.87796 -0.00000 -0.00000
							CHANNELS 3 Zrotation Yrotation Xrotation
							JOINT LeftHand
							{
								OFFSET 3.23169 -0.00000 0.00000
								CHANNELS 3 Zrotation Yrotation Xrotation
								JOINT LeftFingerBase
								{
									OFFSET 0 0 0
									CHANNELS 3 Zrotation Yrotation Xrotation
									JOINT LeftHandIndex1
									{
										OFFSET 0.73132 -0.00000 0.00000
										CHANNELS 3 Zrotation Yrotation Xrotation
										End Site
										{
											OFFSET 0.58961 -0.00000 0.00000
										}
									}
								}
								JOINT LThumb
								{
									OFFSET 0 0 0
									CHANNELS 3 Zrotation Yrotation Xrotation
									End Site
									{
										OFFSET 0.59861 -0.00000 0.59861
									}
								}
							}
						}
					}
				}
				JOINT RightShoulder
				{
					OFFSET 0 0 0
					CHANNELS 3 Zrotation Yrotation Xrotation
					JOINT RightArm
					{
						OFFSET -3.66103 0.75145 0.08281
						CHANNELS 3 Zrotation Yrotation Xrotation
						JOINT RightForeArm
						{
							OFFSET -4.91430 -0.00000 0.00000
							CHANNELS 3 Zrotation Yrotation Xrotation
							JOINT RightHand
							{
								OFFSET -3.29093 -0.00000 0.00000
								CHANNELS 3 Zrotation Yrotation Xrotation
								JOINT RightFingerBase
								{
									OFFSET 0 0 0
									CHANNELS 3 Zrotation Yrotation Xrotation
									JOINT RightHandIndex1
									{
										OFFSET -0.54512 -0.00000 0.00000
										CHANNELS 3 Zrotation Yrotation Xrotation
										End Site
										{
											OFFSET -0.43949 -0.00000 0.00000
										}
									}
								}
								JOINT RThumb
								{
									OFFSET 0 0 0
									CHANNELS 3 Zrotation Yrotation Xrotation
									End Site
									{
										OFFSET -0.44620 -0.00000 0.44620
									}
								}
							}
						}
					}
				}
			}
		}
	}
}
MOTION
Frames: 11
Frame Time: .0083333
17.745 16.0506 1.244 0 0 0 0 0 0 -21 0 0 0 0 0 0 0 0 0 0 0 0 0 0 21 0 0 0 0 0 0 0 0 0 0 0 0 0 0 0 0 0 0 0 0 0 0 -16 0 0 21 0 0 11 0 0 0 -8 0 0 0 0 0 0 0 0 0 0 0 0 0 0 0 0 0 0 0 0 8 0 0 0 0 0 0 0 0 0 0 0 0 0 0 0 0 0
17.7450 16.0506 1.2440 106.0180 -84.6293 -101.7120 0.0000 0.0000 0.0000 -16.3605 -7.0720 -20.9681 4.5731 12.8863 38.9442 2.6157 4.8491 -32.5567 2.1888 -9.2487 -26.5765 0.0000 0.0000 0.0000 -0.5941 8.8811 -20.5926 -4.9480 -13.3250 40.5974 -2.2457 -5.2210 -30.5430 -0.1766 -2.7071 7.4644 -8.4676 0.0061 -4.1372 -2.1039 0.5812 2.7160 2.5937 0.0018 5.1128 -4.4608 1.3777 -2.7630 0.6967 1.8133 16.2879 1.0410 0.5334 5.3083 -0.0000 -0.0000 0.0000 -78.0173 -6.7834 27.0549 27.7819 -38.9147 -9.9864 -0.0000 -0.0000 10.6504 51.3960 -29.9262 -31.9993 -7.1250 0.0000 -0.0000 11.1418 -12.0104 -13.4442 -0.0000 -0.0000 0.0000 85.2534 0.2223 33.7198 -27.6340 38.7771 -9.8936 0.0000 -0.0000 -14.0135 -19.8096 -38.3919 12.6097 7.1250 -0.0000 -0.0000 21.6022 -68.9565 -12.6182
17.7416 16.0543 1.2257 111.7060 -85.5564 -106.9250 0.0000 0.0000 0.0000 -15.0765 -7.2932 -21.6010 4.6701 13.0024 39.3775 2.6450 5.0234 -32.8056 2.1901 -9.2513 -26.5847 0.0000 0.0000 0.0000 0.6775 10.0452 -20.6664 -4.8464 -13.2087 40.1546 -2.1261 -5.6947 -30.0448 -0.1848 -2.7691 7.6365 -7.2503 0.0731 -4.5988 -1.8741 0.6289 2.4685 2.1652 0.0763 5.1092 -4.6983 1.4099 -2.9142 0.9952 1.8401 16.4496 1.1773 0.5483 5.3779 -0.0000 -0.0000 0.0000 -77.8490 -6.6341 27.2527 28.0831 -39.1927 -10.1762 -0.0000 -0.0000 10.2427 51.1645 -29.9290 -31.7887 -7.1250 0.0000 -0.0000 11.0192 -11.8870 -13.2731 -0.0000 -0.0000 0.0000 85.2973 0.2735 33.5535 -27.6373 38.7802 -9.8957 0.0000 -0.0000 -12.4144 -29.1505 -35.1696 17.8102 7.1250 -0.0000 -0.0000 5.8610 -68.7940 -3.3483
17.7355 16.0555 1.2035 121.3580 -86.7247 -116.2520 0.0000 0.0000 0.0000 -13.4306 -7.2931 -22.1271 4.7581 13.1060 39.7668 2.6645 4.9716 -32.8922 2.2026 -9.2760 -26.6625 0.0000 0.0000 0.0000 2.3714 11.3066 -20.4771 -4.7609 -13.1093 39.7791 -1.9976 -6.5868 -29.7193 -0.1923 -2.8238 7.7886 -5.6926 0.2157 -4.9648 -1.6014 0.7360 2.2870 1.5942 0.1872 5.1218 -4.7782 1.3742 -2.8127 1.1066 1.7795 16.3024 1.2202 0.5255 5.3145 0.0000 0.0000 0.0000 -77.6602 -6.6544 27.5969 28.2292 -39.3264 -10.2686 -0.0000 -0.0000 10.0853 51.2224 -29.7321 -31.6881 -7.1250 0.0000 -0.0000 11.1111 -11.6867 -13.3575 0.0000 0.0000 0.0000 85.4016 0.2702 33.1979 -27.7509 38.8859 -9.9669 0.0000 -0.0000 -10.8975 -37.4664 -31.6692 21.9183 7.1250 -0.0000 -0.0000 -8.3114 -67.6623 4.5413
17.7259 16.0615 1.1769 137.8260 -87.5725 -132.4050 0.0000 0.0000 0.0000 -11.9680 -7.4204 -22.4859 4.8325 13.1926 40.0939 2.7149 4.8866 -33.1371 2.1734 -9.2182 -26.4804 0.0000 0.0000 0.0000 3.8802 12.4579 -20.1373 -4.6880 -13.0236 39.4567 -1.9777 -7.8796 -30.3549 -0.1450 -2.4537 6.7614 -4.3882 0.3552 -5.6211 -1.3377 0.8654 2.2334 1.1583 0.2896 5.4389 -4.7188 1.3294 -2.6877 1.0772 1.7176 16.0449 1.1953 0.5044 5.2159 0.0000 0.0000 0.0000 -77.5698 -6.8581 27.6709 28.3145 -39.4041 -10.3227 -0.0000 -0.0000 10.3723 51.3047 -29.6374 -31.6892 -7.1250 0.0000 -0.0000 11.1838 -11.6200 -13.4379 0.0000 0.0000 0.0000 85.5180 0.4757 32.2443 -27.7646 38.8987 -9.9756 0.0000 -0.0000 -7.4936 -42.1873 -30.0359 24.4020 7.1250 -0.0000 -0.0000 -16.0387 -67.2986 8.6971
17.7202 16.0607 1.1485 152.7630 -87.9607 -147.1540 0.0000 0.0000 0.0000 -11.0373 -7.5047 -22.7356 4.8871 13.2556 40.3328 2.7365 4.8526 -33.2431 2.1711 -9.2136 -26.4660 0.0000 0.0000 0.0000 4.8563 13.4334 -19.8146 -4.6365 -12.9624 39.2280 -1.9376 -8.8672 -30.7256 -0.1179 -2.2137 6.0965 -3.5667 0.4526 -5.9833 -1.1938 0.9447 2.1476 0.8603 0.3563 5.5585 -4.7317 1.3159 -2.6404 1.1330 1.6931 15.9328 1.2124 0.4988 5.1731 0.0000 -0.0000 0.0000 -77.4703 -6.9221 27.7923 28.4695 -39.5449 -10.4212 -0.0000 -0.0000 10.4884 51.3152 -29.5690 -31.6450 -7.1250 0.0000 -0.0000 11.2106 -11.5450 -13.4599 0.0000 -0.0000 0.0000 85.6220 0.6328 31.4311 -27.6797 38.8197 -9.9223 0.0000 -0.0000 -4.3834 -44.1692 -29.4573 25.5346 7.1250 -0.0000 -0.0000 -19.3053 -67.2565 10.4994
17.7159 16.0583 1.1164 162.5230 -88.1200 -156.8270 0.0000 0.0000 0.0000 -10.4790 -7.5819 -22.8329 4.9172 13.2899 40.4636 2.7455 4.8434 -33.2893 2.1777 -9.2268 -26.5074 0.0000 0.0000 0.0000 5.4774 14.2301 -19.4565 -4.6091 -12.9295 39.1053 -1.9216 -9.7917 -31.2391 -0.0872 -1.9047 5.2423 -3.1008 0.5257 -6.2341 -1.1292 1.0128 2.0962 0.6767 0.4054 5.6501 -4.6866 1.3048 -2.6286 1.1236 1.6787 15.8473 1.2007 0.4967 5.1454 -0.0000 -0.0000 0.0000 -77.4042 -6.9882 27.8580 28.6195 -39.6804 -10.5169 -0.0000 -0.0000 10.6763 51.3192 -29.5359 -31.6226 -7.1250 0.0000 -0.0000 11.2229 -11.5080 -13.4696 -0.0000 -0.0000 0.0000 85.7243 0.8290 30.6149 -27.5303 38.6803 -9.8288 0.0000 -0.0000 -1.3065 -44.1822 -29.7116 25.7194 7.1250 -0.0000 -0.0000 -19.3690 -67.5514 10.6644
17.7135 16.0549 1.0815 165.7060 -88.2003 -159.9990 0.0000 0.0000 0.0000 -10.2059 -7.6580 -22.8214 4.9272 13.3014 40.5074 2.7414 4.8827 -33.2846 2.1999 -9.2706 -26.6455 0.0000 0.0000 0.0000 5.8183 14.8154 -19.1254 -4.6016 -12.9206 39.0719 -1.9234 -10.5471 -31.7702 -0.0588 -1.5652 4.3055 -2.8999 0.5700 -6.3820 -1.1225 1.0607 2.0686 0.5782 0.4359 5.7069 -4.6200 1.2982 -2.6610 1.0804 1.6756 15.8002 1.1761 0.4984 5.1374 -0.0000 0.0000 0.0000 -77.3763 -7.0469 27.8494 28.7630 -39.8092 -10.6086 -0.0000 -0.0000 10.8947 51.2751 -29.5672 -31.6070 -7.1250 0.0000 -0.0000 11.1900 -11.5209 -13.4307 -0.0000 0.0000 0.0000 85.8148 1.0566 29.9681 -27.3402 38.5017 -9.7102 0.0000 0.0000 1.2521 -43.0526 -30.1821 25.1587 7.1250 -0.0000 -0.0000 -17.4939 -67.7341 9.6777
17.7126 16.0507 1.0452 163.4750 -88.2728 -157.8290 0.0000 0.0000 0.0000 -10.1293 -7.7311 -22.7189 4.9231 13.2967 40.4896 2.7262 4.9641 -33.2367 2.2397 -9.3485 -26.8917 0.0000 0.0000 0.0000 5.9649 15.1287 -18.8529 -4.6087 -12.9291 39.1038 -1.9325 -11.0535 -32.1833 -0.0360 -1.2251 3.3683 -2.8709 0.5833 -6.4263 -1.1520 1.0791 2.0651 0.5337 0.4462 5.7289 -4.5507 1.3049 -2.7310 1.0179 1.6949 15.7778 1.1467 0.5096 5.1431 -0.0000 0.0000 0.0000 -77.3904 -7.0949 27.7659 28.8913 -39.9239 -10.6909 -0.0000 -0.0000 11.1200 51.1814 -29.6564 -31.5913 -7.1250 0.0000 -0.0000 11.1129 -11.5751 -13.3430 -0.0000 0.0000 0.0000 85.8851 1.3010 29.5948 -27.1415 38.3138 -9.5867 0.0000 0.0000 3.0177 -41.3298 -30.6106 24.1234 7.1250 -0.0000 -0.0000 -14.6255 -67.6813 8.0439
17.7127 16.0468 1.0094 163.4110 -88.4079 -157.8400 0.0000 0.0000 0.0000 -9.9636 -7.8070 -22.6012 4.9128 13.2849 40.4445 2.7045 5.0647 -33.1614 2.2905 -9.4466 -27.2025 0.0000 0.0000 0.0000 6.1797 15.1591 -18.7048 -4.6235 -12.9468 39.1696 -1.9361 -11.2985 -32.3806 -0.0194 -0.8998 2.4733 -2.7419 0.5804 -6.4372 -1.1509 1.0650 2.0751 0.4612 0.4437 5.7480 -4.4895 1.3141 -2.7900 0.9356 1.7210 15.7238 1.1125 0.5230 5.1372 0.0000 0.0000 0.0000 -77.4505 -7.1420 27.6207 28.9916 -40.0132 -10.7553 -0.0000 -0.0000 11.3356 51.0415 -29.7785 -31.5590 -7.1250 0.0000 -0.0000 11.0013 -11.6430 -13.2145 0.0000 0.0000 0.0000 85.9242 1.5593 29.4850 -26.9565 38.1377 -9.4722 0.0000 0.0000 4.0247 -40.3092 -30.5209 23.3078 7.1250 -0.0000 -0.0000 -12.9801 -67.2637 7.0028
17.7134 16.0436 0.9751 165.1290 -88.6012 -159.6480 0.0000 0.0000 0.0000 -9.7402 -7.8961 -22.4669 4.9003 13.2707 40.3903 2.6805 5.1629 -33.0727 2.3432 -9.5471 -27.5221 0.0000 0.0000 0.0000 6.4308 14.8543 -18.6847 -4.6415 -12.9683 39.2498 -1.9334 -11.2670 -32.3414 -0.0081 -0.5820 1.5992 -2.5309 0.5592 -6.4204 -1.1249 1.0176 2.0963 0.3646 0.4275 5.7647 -4.4586 1.3303 -2.8266 0.8654 1.7562 15.6358 1.0871 0.5408 5.1164 -0.0000 0.0000 0.0000 -77.5624 -7.1796 27.4182 29.0643 -40.0778 -10.8021 -0.0000 -0.0000 11.5419 50.8640 -29.9144 -31.5029 -7.1250 0.0000 -0.0000 10.8655 -11.7067 -13.0554 -0.0000 0.0000 0.0000 85.9283 1.8033 29.6737 -26.8250 38.0118 -9.3911 0.0000 0.0000 4.1723 -40.2300 -30.1899 23.0453 7.1250 -0.0000 -0.0000 -12.8851 -66.8671 6.8343
